<svg width="149" height="121" viewBox="0 0 149 121" fill="none" xmlns="http://www.w3.org/2000/svg">
<path d="M94 0V8H86V0H54V8H46V0H38V72H46V64H54V72H86V64H94V72H102V0H94ZM54 56H46V48H54V56ZM54 40H46V32H54V40ZM54 24H46V16H54V24ZM94 56H86V48H94V56ZM94 40H86V32H94V40ZM94 24H86V16H94V24Z" fill="#D739B4"/>
<path d="M2.02273 89.7273H8.09091L14.5 105.364H14.7727L21.1818 89.7273H27.25V113H22.4773V97.8523H22.2841L16.2614 112.886H13.0114L6.98864 97.7955H6.79545V113H2.02273V89.7273ZM39.0994 113.341C37.3343 113.341 35.8078 112.966 34.5199 112.216C33.2396 111.458 32.2509 110.405 31.554 109.057C30.857 107.701 30.5085 106.129 30.5085 104.341C30.5085 102.538 30.857 100.962 31.554 99.6136C32.2509 98.2576 33.2396 97.2045 34.5199 96.4545C35.8078 95.697 37.3343 95.3182 39.0994 95.3182C40.8646 95.3182 42.3873 95.697 43.6676 96.4545C44.9555 97.2045 45.9479 98.2576 46.6449 99.6136C47.3419 100.962 47.6903 102.538 47.6903 104.341C47.6903 106.129 47.3419 107.701 46.6449 109.057C45.9479 110.405 44.9555 111.458 43.6676 112.216C42.3873 112.966 40.8646 113.341 39.0994 113.341ZM39.1222 109.591C39.9252 109.591 40.5956 109.364 41.1335 108.909C41.6714 108.447 42.0767 107.818 42.3494 107.023C42.6297 106.227 42.7699 105.322 42.7699 104.307C42.7699 103.292 42.6297 102.386 42.3494 101.591C42.0767 100.795 41.6714 100.167 41.1335 99.7045C40.5956 99.2424 39.9252 99.0114 39.1222 99.0114C38.3116 99.0114 37.6297 99.2424 37.0767 99.7045C36.5313 100.167 36.1184 100.795 35.8381 101.591C35.5653 102.386 35.429 103.292 35.429 104.307C35.429 105.322 35.5653 106.227 35.8381 107.023C36.1184 107.818 36.5313 108.447 37.0767 108.909C37.6297 109.364 38.3116 109.591 39.1222 109.591ZM66.5483 95.5455L60.446 113H54.9915L48.8892 95.5455H54.0028L57.6278 108.034H57.8097L61.4233 95.5455H66.5483ZM69.0256 113V95.5455H73.8665V113H69.0256ZM71.4574 93.2955C70.7377 93.2955 70.1203 93.0568 69.6051 92.5795C69.0975 92.0947 68.8438 91.5152 68.8438 90.8409C68.8438 90.1742 69.0975 89.6023 69.6051 89.125C70.1203 88.6402 70.7377 88.3977 71.4574 88.3977C72.1771 88.3977 72.7907 88.6402 73.2983 89.125C73.8134 89.6023 74.071 90.1742 74.071 90.8409C74.071 91.5152 73.8134 92.0947 73.2983 92.5795C72.7907 93.0568 72.1771 93.2955 71.4574 93.2955ZM85.6989 113.341C83.9034 113.341 82.358 112.977 81.0625 112.25C79.7746 111.515 78.7822 110.477 78.0852 109.136C77.3883 107.788 77.0398 106.193 77.0398 104.352C77.0398 102.557 77.3883 100.981 78.0852 99.625C78.7822 98.2689 79.7633 97.2121 81.0284 96.4545C82.3011 95.697 83.7936 95.3182 85.5057 95.3182C86.6572 95.3182 87.7292 95.5038 88.7216 95.875C89.7216 96.2386 90.5928 96.7879 91.3352 97.5227C92.0852 98.2576 92.6686 99.1818 93.0852 100.295C93.5019 101.402 93.7102 102.697 93.7102 104.182V105.511H78.9716V102.511H89.1534C89.1534 101.814 89.0019 101.197 88.6989 100.659C88.3958 100.121 87.9754 99.7008 87.4375 99.3977C86.9072 99.0871 86.2898 98.9318 85.5852 98.9318C84.8504 98.9318 84.1989 99.1023 83.6307 99.4432C83.0701 99.7765 82.6307 100.227 82.3125 100.795C81.9943 101.356 81.8314 101.981 81.8239 102.67V105.523C81.8239 106.386 81.983 107.133 82.3011 107.761C82.6269 108.39 83.0852 108.875 83.6761 109.216C84.267 109.557 84.9678 109.727 85.7784 109.727C86.3163 109.727 86.8087 109.652 87.2557 109.5C87.7027 109.348 88.0852 109.121 88.4034 108.818C88.7216 108.515 88.964 108.144 89.1307 107.705L93.608 108C93.3807 109.076 92.9148 110.015 92.2102 110.818C91.5133 111.614 90.6117 112.235 89.5057 112.682C88.4072 113.121 87.1383 113.341 85.6989 113.341ZM99.6989 113.295C98.9489 113.295 98.3049 113.03 97.767 112.5C97.2367 111.962 96.9716 111.318 96.9716 110.568C96.9716 109.826 97.2367 109.189 97.767 108.659C98.3049 108.129 98.9489 107.864 99.6989 107.864C100.426 107.864 101.063 108.129 101.608 108.659C102.153 109.189 102.426 109.826 102.426 110.568C102.426 111.068 102.297 111.527 102.04 111.943C101.79 112.352 101.46 112.682 101.051 112.932C100.642 113.174 100.191 113.295 99.6989 113.295ZM104.511 93.7841V89.7273H123.625V93.7841H116.5V113H111.636V93.7841H104.511ZM130.977 89.7273L136.602 107.409H136.818L142.455 89.7273H147.909L139.886 113H133.545L125.511 89.7273H130.977Z" fill="black"/>
</svg>
